# xmcd CD database file
# Copyright (C) 1997 Ti Kan
# 
# Track frame offsets:
#     180
#     17570
#     31328
#     52336
#     73141
#     89600
#     106832
#     124397
#     139243
#     160680
#     177505
#     194985
# 
# Disc length: 2854 seconds
# 
# Revision: 1
# Processed by: cddbd v1.4b41PL1 Copyright (c) Steve Scherf et al.
# Submitted via: DiscPlay 4.0.2
# 
DISCID=b70b240c
DTITLE=Mark David Manders and Nuevo Tejas - People and Places
DYEAR=1900
DGENRE=
TTITLE0=The Wedding Song
TTITLE1=The Whiskey Song
TTITLE2=White Pines Ranch
TTITLE3=Long Gone to Austin
TTITLE4=Take a Look Around
TTITLE5=Bordertown Blues
TTITLE6=Sing Me a Song About Texas
TTITLE7=Ponder, Texas
TTITLE8=Nickel Creek Cafe
TTITLE9=My Friend, Texas
TTITLE10=Coast of Madagascar
TTITLE11=This Ain't no Beer Joint
EXTD=
EXTT0=
EXTT1=
EXTT2=
EXTT3=
EXTT4=
EXTT5=
EXTT6=
EXTT7=
EXTT8=
EXTT9=
EXTT10=
EXTT11=
PLAYORDER=
